<svg data-v-423bf9ae="" xmlns="http://www.w3.org/2000/svg" viewBox="0 0 824.3877819129618 163" class="iconAbove"><!----><!----><!----><g data-v-423bf9ae="" id="6938efd9-94c5-41e2-87d9-2fcc7482c996" fill="#424242" transform="matrix(6.122449456230433,0,0,6.122449456230433,-9.673484363739703,96.75510310193289)"><path d="M1.58 1.24L2.43 1.24L2.43 2.69Q2.73 2.43 3.10 2.13Q3.47 1.84 3.92 1.59Q4.36 1.35 4.88 1.18Q5.40 1.02 6.00 1.02L6.00 1.02Q6.95 1.02 7.68 1.45Q8.41 1.87 8.86 2.77L8.86 2.77Q9.30 2.37 9.76 2.04Q10.23 1.72 10.72 1.49Q11.20 1.26 11.72 1.14Q12.24 1.02 12.80 1.02L12.80 1.02Q13.50 1.02 14.08 1.26Q14.66 1.50 15.06 1.91Q15.46 2.33 15.69 2.90Q15.91 3.46 15.91 4.10L15.91 4.10L15.91 10.64L15.05 10.64L15.05 4.32Q15.05 3.73 14.91 3.27Q14.77 2.81 14.48 2.49Q14.18 2.17 13.72 2.00Q13.25 1.83 12.61 1.83L12.61 1.83Q12.10 1.83 11.60 1.98Q11.09 2.13 10.64 2.37Q10.18 2.61 9.78 2.92Q9.39 3.23 9.08 3.55L9.08 3.55Q9.12 3.75 9.12 3.88Q9.13 4.02 9.13 4.21L9.13 4.21L9.13 10.64L8.27 10.64L8.27 4.32Q8.27 3.62 8.09 3.15Q7.90 2.67 7.57 2.38Q7.25 2.08 6.80 1.96Q6.35 1.83 5.82 1.83L5.82 1.83Q5.33 1.83 4.84 2.00Q4.35 2.17 3.90 2.45Q3.46 2.72 3.08 3.06Q2.71 3.40 2.43 3.73L2.43 3.73L2.43 10.64L1.58 10.64L1.58 1.24ZM28.62 1.24L28.62 7.21Q28.62 8.13 28.18 8.80Q27.75 9.47 27.00 9.92Q26.24 10.36 25.21 10.58Q24.19 10.79 22.99 10.79L22.99 10.79Q21.69 10.79 20.60 10.63Q19.52 10.46 18.70 10.16L18.70 10.16L18.70 9.17Q19.14 9.35 19.61 9.51Q20.07 9.67 20.60 9.79Q21.12 9.91 21.72 9.97Q22.32 10.04 23.02 10.04L23.02 10.04Q24.00 10.04 24.86 9.85Q25.72 9.66 26.36 9.30Q27.00 8.94 27.37 8.42Q27.75 7.89 27.75 7.21L27.75 7.21L27.75 5.43Q27.42 5.87 26.94 6.28Q26.47 6.69 25.88 7.00Q25.30 7.31 24.62 7.50Q23.93 7.68 23.17 7.68L23.17 7.68Q22.31 7.68 21.65 7.52Q20.98 7.36 20.48 7.08Q19.99 6.80 19.65 6.42Q19.30 6.03 19.10 5.57Q18.89 5.12 18.80 4.62Q18.70 4.12 18.70 3.61L18.70 3.61L18.70 1.24L19.57 1.24L19.57 3.42Q19.57 4.21 19.76 4.85Q19.95 5.50 20.38 5.95Q20.81 6.41 21.51 6.66Q22.21 6.91 23.24 6.91L23.24 6.91Q24.04 6.91 24.71 6.70Q25.38 6.48 25.94 6.11Q26.49 5.75 26.94 5.27Q27.39 4.79 27.75 4.27L27.75 4.27L27.75 1.24L28.62 1.24ZM41.41 9.89L41.41 9.89Q40.92 10.10 40.44 10.27Q39.96 10.44 39.44 10.56Q38.92 10.68 38.34 10.75Q37.77 10.82 37.09 10.82L37.09 10.82Q36.26 10.82 35.49 10.68Q34.72 10.55 34.06 10.27Q33.39 10.00 32.85 9.59Q32.31 9.19 31.93 8.65Q31.54 8.11 31.33 7.43Q31.12 6.75 31.12 5.95L31.12 5.95Q31.12 5.14 31.33 4.46Q31.54 3.79 31.93 3.25Q32.31 2.71 32.85 2.30Q33.39 1.89 34.06 1.62Q34.72 1.35 35.49 1.21Q36.25 1.07 37.09 1.07L37.09 1.07Q37.77 1.07 38.34 1.14Q38.92 1.21 39.44 1.33Q39.96 1.46 40.44 1.62Q40.92 1.79 41.41 2.00L41.41 2.00L41.41 3.02Q41.02 2.78 40.58 2.56Q40.13 2.34 39.62 2.17Q39.10 2.01 38.51 1.91Q37.93 1.82 37.26 1.82L37.26 1.82Q35.90 1.82 34.91 2.11Q33.92 2.41 33.27 2.94Q32.63 3.48 32.32 4.24Q32.01 5.00 32.01 5.95L32.01 5.95Q32.01 6.89 32.32 7.65Q32.63 8.41 33.27 8.94Q33.92 9.48 34.91 9.77Q35.90 10.06 37.26 10.06L37.26 10.06Q37.93 10.06 38.52 9.97Q39.12 9.87 39.65 9.71Q40.17 9.54 40.61 9.33Q41.05 9.11 41.41 8.87L41.41 8.87L41.41 9.89ZM55.22 5.95L55.22 5.95Q55.22 7.21 54.76 8.13Q54.30 9.05 53.50 9.65Q52.71 10.25 51.62 10.53Q50.53 10.82 49.27 10.82L49.27 10.82Q48.01 10.82 46.92 10.53Q45.82 10.25 45.01 9.65Q44.21 9.05 43.75 8.13Q43.29 7.21 43.29 5.95L43.29 5.95Q43.29 5.11 43.50 4.42Q43.72 3.73 44.10 3.19Q44.48 2.65 45.02 2.25Q45.57 1.85 46.23 1.59Q46.90 1.33 47.67 1.20Q48.43 1.07 49.27 1.07L49.27 1.07Q50.53 1.07 51.62 1.36Q52.71 1.65 53.50 2.25Q54.30 2.84 54.76 3.76Q55.22 4.68 55.22 5.95ZM54.34 5.95L54.34 5.95Q54.34 4.95 54.01 4.18Q53.69 3.42 53.05 2.90Q52.42 2.37 51.47 2.10Q50.52 1.83 49.27 1.83L49.27 1.83Q48.02 1.83 47.07 2.11Q46.12 2.38 45.47 2.90Q44.83 3.42 44.50 4.19Q44.17 4.96 44.17 5.95L44.17 5.95Q44.17 6.95 44.50 7.71Q44.83 8.48 45.47 9.00Q46.12 9.52 47.07 9.79Q48.02 10.06 49.27 10.06L49.27 10.06Q50.52 10.06 51.47 9.79Q52.42 9.52 53.05 9.00Q53.69 8.48 54.01 7.71Q54.34 6.95 54.34 5.95ZM67.35 9.89L67.35 9.89Q66.86 10.10 66.38 10.27Q65.90 10.44 65.38 10.56Q64.86 10.68 64.29 10.75Q63.71 10.82 63.03 10.82L63.03 10.82Q62.20 10.82 61.43 10.68Q60.66 10.55 60.00 10.27Q59.34 10.00 58.80 9.59Q58.26 9.19 57.87 8.65Q57.48 8.11 57.27 7.43Q57.07 6.75 57.07 5.95L57.07 5.95Q57.07 5.14 57.27 4.46Q57.48 3.79 57.87 3.25Q58.26 2.71 58.80 2.30Q59.34 1.89 60.00 1.62Q60.66 1.35 61.43 1.21Q62.19 1.07 63.03 1.07L63.03 1.07Q63.71 1.07 64.29 1.14Q64.86 1.21 65.38 1.33Q65.90 1.46 66.38 1.62Q66.86 1.79 67.35 2.00L67.35 2.00L67.35 3.02Q66.96 2.78 66.52 2.56Q66.08 2.34 65.56 2.17Q65.04 2.01 64.46 1.91Q63.87 1.82 63.20 1.82L63.20 1.82Q61.84 1.82 60.85 2.11Q59.86 2.41 59.22 2.94Q58.57 3.48 58.26 4.24Q57.95 5.00 57.95 5.95L57.95 5.95Q57.95 6.89 58.26 7.65Q58.57 8.41 59.22 8.94Q59.86 9.48 60.85 9.77Q61.84 10.06 63.20 10.06L63.20 10.06Q63.87 10.06 64.47 9.97Q65.06 9.87 65.59 9.71Q66.11 9.54 66.55 9.33Q66.99 9.11 67.35 8.87L67.35 8.87L67.35 9.89ZM79.58 10.64L78.70 10.64Q78.63 9.87 78.33 9.25Q78.02 8.63 77.54 8.16Q77.05 7.68 76.43 7.33Q75.81 6.99 75.11 6.76Q74.42 6.54 73.67 6.43Q72.93 6.32 72.20 6.32L72.20 6.32L70.75 6.32L70.75 10.64L69.89 10.64L69.89 1.24L70.75 1.24L70.75 5.57L71.97 5.57Q72.70 5.57 73.42 5.44Q74.15 5.30 74.81 5.05Q75.47 4.79 76.04 4.42Q76.61 4.05 77.05 3.56Q77.49 3.08 77.77 2.50Q78.05 1.92 78.11 1.24L78.11 1.24L79.00 1.24Q78.93 1.99 78.66 2.59Q78.40 3.20 78.02 3.68Q77.64 4.17 77.16 4.54Q76.69 4.90 76.21 5.16Q75.72 5.43 75.26 5.60Q74.79 5.78 74.42 5.87L74.42 5.87Q74.89 5.94 75.44 6.09Q75.99 6.25 76.54 6.50Q77.09 6.76 77.61 7.13Q78.13 7.51 78.54 8.01Q78.96 8.52 79.24 9.17Q79.52 9.82 79.58 10.64L79.58 10.64ZM90.11 2.02L85.84 2.02L85.84 10.64L84.99 10.64L84.99 2.02L80.72 2.02L80.72 1.24L90.11 1.24L90.11 2.02ZM101.31 10.64L100.46 10.64L100.46 9.60Q99.97 9.86 99.34 10.09Q98.72 10.32 98.02 10.48Q97.33 10.64 96.60 10.73Q95.87 10.82 95.16 10.82L95.16 10.82Q94.25 10.82 93.52 10.66Q92.79 10.49 92.29 10.17Q91.78 9.84 91.51 9.36Q91.23 8.88 91.23 8.24L91.23 8.24Q91.23 7.62 91.55 7.13Q91.87 6.65 92.46 6.29Q93.04 5.93 93.87 5.68Q94.71 5.43 95.73 5.26Q96.76 5.09 97.95 4.97Q99.14 4.86 100.46 4.79L100.46 4.79L100.46 4.07Q100.46 3.63 100.30 3.29Q100.13 2.96 99.84 2.71Q99.54 2.46 99.15 2.29Q98.75 2.13 98.29 2.02Q97.83 1.92 97.32 1.88Q96.81 1.83 96.30 1.83L96.30 1.83Q95.61 1.83 95.04 1.90Q94.47 1.97 93.98 2.09Q93.49 2.21 93.04 2.37Q92.59 2.52 92.13 2.70L92.13 2.70L92.13 1.70Q93.08 1.45 94.15 1.26Q95.23 1.07 96.44 1.07L96.44 1.07Q97.47 1.07 98.36 1.25Q99.24 1.42 99.90 1.80Q100.56 2.19 100.93 2.79Q101.31 3.40 101.31 4.27L101.31 4.27L101.31 10.64ZM100.46 8.70L100.46 5.54Q98.23 5.67 96.64 5.89Q95.06 6.12 94.06 6.45Q93.05 6.77 92.58 7.21Q92.11 7.65 92.11 8.20L92.11 8.20Q92.11 8.65 92.34 9.00Q92.57 9.35 93.00 9.59Q93.43 9.82 94.05 9.94Q94.66 10.06 95.43 10.06L95.43 10.06Q95.88 10.06 96.36 10.01Q96.84 9.96 97.32 9.87Q97.80 9.78 98.27 9.65Q98.73 9.52 99.14 9.37Q99.55 9.22 99.89 9.05Q100.23 8.88 100.46 8.70L100.46 8.70ZM105.25 10.64L104.39 10.64L104.39 1.24L105.25 1.24L105.25 10.64ZM109.27 1.24L109.27 7.39Q109.27 8.03 109.37 8.48Q109.47 8.94 109.80 9.24Q110.13 9.53 110.75 9.67Q111.36 9.81 112.39 9.81L112.39 9.81L116.63 9.81L116.63 10.64L112.22 10.64Q111.09 10.64 110.36 10.46Q109.62 10.27 109.19 9.90Q108.75 9.52 108.58 8.93Q108.41 8.35 108.41 7.55L108.41 7.55L108.41 1.24L109.27 1.24ZM118.66 10.64L117.47 10.64L117.47 9.15L118.66 9.15L118.66 10.64ZM121.80 10.64L120.94 10.64L120.94 1.24L121.80 1.24L121.80 10.64ZM136.23 5.95L136.23 5.95Q136.23 7.21 135.78 8.13Q135.32 9.05 134.52 9.65Q133.72 10.25 132.63 10.53Q131.54 10.82 130.29 10.82L130.29 10.82Q129.02 10.82 127.93 10.53Q126.83 10.25 126.03 9.65Q125.22 9.05 124.76 8.13Q124.30 7.21 124.30 5.95L124.30 5.95Q124.30 5.11 124.52 4.42Q124.73 3.73 125.11 3.19Q125.49 2.65 126.04 2.25Q126.58 1.85 127.25 1.59Q127.91 1.33 128.68 1.20Q129.45 1.07 130.29 1.07L130.29 1.07Q131.54 1.07 132.63 1.36Q133.72 1.65 134.52 2.25Q135.32 2.84 135.78 3.76Q136.23 4.68 136.23 5.95ZM135.35 5.95L135.35 5.95Q135.35 4.95 135.03 4.18Q134.70 3.42 134.07 2.90Q133.43 2.37 132.48 2.10Q131.54 1.83 130.29 1.83L130.29 1.83Q129.04 1.83 128.08 2.11Q127.13 2.38 126.49 2.90Q125.84 3.42 125.51 4.19Q125.19 4.96 125.19 5.95L125.19 5.95Q125.19 6.95 125.51 7.71Q125.84 8.48 126.49 9.00Q127.13 9.52 128.08 9.79Q129.04 10.06 130.29 10.06L130.29 10.06Q131.54 10.06 132.48 9.79Q133.43 9.52 134.07 9.00Q134.70 8.48 135.03 7.71Q135.35 6.95 135.35 5.95Z"></path></g><!----><g data-v-423bf9ae="" id="f27f83bc-4f21-46b0-8ff1-2b06d8bf8ba2" transform="matrix(1.068896336949969,0,0,1.068896336949969,376.13174888294054,-6.473593425187637)" stroke="none" fill="#C2B7D5"><path d="M54.101 6.874c-8.296 0-15.021 6.725-15.021 15.021 0 4.081 1.633 7.777 4.275 10.484l4.321-6.008a4.134 4.134 0 013.68-2.233c1.111 0 2.155.433 2.94 1.22a4.176 4.176 0 01.551 5.194l-.054.083-.193.247a374.831 374.831 0 00-4.258 5.541c1.203.311 2.458.493 3.759.493 8.296 0 15.021-6.725 15.021-15.021-.001-8.296-6.726-15.021-15.021-15.021zm-11.472 9.978c1.175-2.692 8.567 3.434 8.455 4.249-.105.821-9.595-1.602-8.455-4.249zm11.085 2.374c-.778.268-2.902-9.298-.015-9.466 2.915-.171.78 9.195.015 9.466zm10.208 11.828c-1.626 2.42-7.773-4.967-7.51-5.749.247-.776 9.133 3.352 7.51 5.749zM56.731 20.8c-.537-.625 7.642-6.03 8.829-3.405 1.215 2.664-8.299 4.042-8.829 3.405z"></path><path d="M53.029 29.644l.14-.178a2.164 2.164 0 00-.284-2.693c-.409-.41-.951-.635-1.527-.635s-1.119.225-1.528.634a2.115 2.115 0 00-.377.521l-.067.128-5.699 7.923c.027.02.055.038.081.059l5.719-7.95c.1-.221.234-.431.416-.612a2.057 2.057 0 013.183 2.57l-.136.172c-1.529 1.939-3.623 4.688-5.935 7.762l.089.04 1.644-2.171a378.826 378.826 0 014.281-5.57zM41.924 33.776l.234.24.007-.009c-.079-.078-.163-.151-.241-.231z"></path><path d="M41.924 33.776a17.223 17.223 0 01-3.578-5.437H7.357l19.442 27.039 15.359-21.362-.234-.24z"></path><path d="M52.812 26.841a2.057 2.057 0 00-2.91 0 2.05 2.05 0 00-.416.612l-5.719 7.95-16.968 23.588L4.021 27.327l-.35-.486a2.058 2.058 0 00-2.911 0 2.055 2.055 0 00-.285 2.548l.273.348c6.615 8.466 23.66 31.703 23.66 31.703v23.214s-8.352 3.457-12.047 5.297l-.151.075a.57.57 0 00-.259.469c0 .318.259.578.578.578h27.846c.319 0 .578-.26.578-.578 0-.191-.1-.354-.244-.459l-.157-.083c-3.475-1.84-11.346-5.299-11.346-5.299V61.44s10.121-13.868 17.81-24.094c2.312-3.074 4.405-5.823 5.935-7.762l.136-.172a2.06 2.06 0 00-.275-2.571z"></path></g><!----></svg>